<svg width="86" height="60" viewBox="0 0 86 60" fill="none" xmlns="http://www.w3.org/2000/svg">
<path d="M43 21.6471C39.8812 21.6471 37.3529 19.1188 37.3529 16C37.3529 12.8812 39.8812 10.3529 43 10.3529C46.1187 10.3529 48.647 12.8812 48.647 16C48.647 19.1188 46.1187 21.6471 43 21.6471Z" fill="#91E489"/>
<path d="M32.1054 18.2821C30.4868 18.5623 29.3773 20.0973 29.9986 21.5912C30.8661 23.6768 32.25 25.5349 34.0442 26.987C36.6098 29.0631 39.8457 30.1725 43.1701 30.1156C46.4944 30.0586 49.689 28.839 52.1792 26.6761C53.9206 25.1636 55.2377 23.2591 56.0306 21.1451C56.5984 19.6309 55.435 18.1348 53.8073 17.9102C52.1798 17.6857 50.7184 18.8487 49.9145 20.2562C49.4787 21.019 48.913 21.7111 48.2352 22.2998C46.8065 23.5408 44.9735 24.2405 43.0663 24.2732C41.1589 24.3058 39.3022 23.6694 37.8302 22.4781C37.1319 21.913 36.542 21.2407 36.0794 20.4932C35.2259 19.1142 33.7241 18.0019 32.1054 18.2821Z" fill="#82E579"/>
<path d="M57.0084 17.4048C57.0805 16.8399 57.1176 16.2644 57.1176 15.6805C57.1176 8.05998 50.797 1.88235 43 1.88235C35.203 1.88235 28.8823 8.05998 28.8823 15.6805C28.8823 16.4299 28.9435 17.1653 29.0611 17.8824C29.7096 17.0147 30.7216 16.3954 31.8148 16.207C32.9976 16.0031 34.0725 16.2835 34.9814 16.8076C34.9277 16.4394 34.8999 16.0631 34.8999 15.6805C34.8999 11.3082 38.5265 7.76375 43 7.76375C47.4735 7.76375 51.1 11.3082 51.1 15.6805C51.1 15.9687 51.0842 16.2534 51.0535 16.5337C51.9432 15.9788 53.0077 15.6617 54.1972 15.8252C55.2962 15.9761 56.3294 16.5602 57.0084 17.4048Z" fill="#00797C"/>
<path d="M0.704545 45.875V44.3636H9.71023V45.875H6.07955V56H4.32955V45.875H0.704545ZM10.8177 56V47.2727H12.4597V48.6591H12.5506C12.7097 48.1894 12.99 47.8201 13.3915 47.5511C13.7968 47.2784 14.2552 47.142 14.7665 47.142C14.8726 47.142 14.9976 47.1458 15.1415 47.1534C15.2893 47.161 15.4048 47.1705 15.4881 47.1818V48.8068C15.4199 48.7879 15.2987 48.767 15.1245 48.7443C14.9502 48.7178 14.776 48.7045 14.6018 48.7045C14.2002 48.7045 13.8423 48.7898 13.5279 48.9602C13.2173 49.1269 12.9711 49.3598 12.7893 49.6591C12.6074 49.9545 12.5165 50.2917 12.5165 50.6705V56H10.8177ZM19.5799 56.1932C19.0269 56.1932 18.5269 56.0909 18.0799 55.8864C17.633 55.678 17.2788 55.3769 17.0174 54.983C16.7599 54.589 16.6311 54.1061 16.6311 53.5341C16.6311 53.0417 16.7258 52.6364 16.9152 52.3182C17.1046 52 17.3602 51.7481 17.6822 51.5625C18.0042 51.3769 18.364 51.2367 18.7618 51.142C19.1595 51.0473 19.5648 50.9754 19.9777 50.9261C20.5004 50.8655 20.9246 50.8163 21.2504 50.7784C21.5762 50.7367 21.8129 50.6705 21.9606 50.5795C22.1084 50.4886 22.1822 50.3409 22.1822 50.1364V50.0966C22.1822 49.6004 22.0421 49.2159 21.7618 48.9432C21.4852 48.6705 21.0724 48.5341 20.5231 48.5341C19.9512 48.5341 19.5004 48.661 19.1709 48.9148C18.8451 49.1648 18.6197 49.4432 18.4947 49.75L16.8981 49.3864C17.0875 48.8561 17.364 48.428 17.7277 48.1023C18.0951 47.7727 18.5174 47.5341 18.9947 47.3864C19.472 47.2348 19.9739 47.1591 20.5004 47.1591C20.8489 47.1591 21.2182 47.2008 21.6084 47.2841C22.0023 47.3636 22.3697 47.5114 22.7106 47.7273C23.0553 47.9432 23.3375 48.2519 23.5572 48.6534C23.7769 49.0511 23.8868 49.5682 23.8868 50.2045V56H22.2277V54.8068H22.1595C22.0496 55.0265 21.8849 55.2424 21.6652 55.4545C21.4455 55.6667 21.1633 55.8428 20.8186 55.983C20.4739 56.1231 20.061 56.1932 19.5799 56.1932ZM19.9493 54.8295C20.419 54.8295 20.8205 54.7367 21.1538 54.5511C21.4909 54.3655 21.7466 54.1231 21.9209 53.8239C22.0989 53.5208 22.1879 53.197 22.1879 52.8523V51.7273C22.1273 51.7879 22.0099 51.8447 21.8356 51.8977C21.6652 51.947 21.4701 51.9905 21.2504 52.0284C21.0307 52.0625 20.8167 52.0947 20.6084 52.125C20.4 52.1515 20.2258 52.1742 20.0856 52.1932C19.7561 52.2348 19.4549 52.3049 19.1822 52.4034C18.9133 52.5019 18.6974 52.6439 18.5345 52.8295C18.3754 53.0114 18.2959 53.2538 18.2959 53.5568C18.2959 53.9773 18.4512 54.2955 18.7618 54.5114C19.0724 54.7235 19.4682 54.8295 19.9493 54.8295ZM29.5766 56.1705C28.872 56.1705 28.2433 55.9905 27.6902 55.6307C27.141 55.267 26.7092 54.75 26.3948 54.0795C26.0842 53.4053 25.9289 52.5966 25.9289 51.6534C25.9289 50.7102 26.0861 49.9034 26.4005 49.233C26.7186 48.5625 27.1542 48.0492 27.7073 47.6932C28.2603 47.3371 28.8872 47.1591 29.588 47.1591C30.1296 47.1591 30.5652 47.25 30.8948 47.4318C31.2281 47.6098 31.4857 47.8182 31.6675 48.0568C31.8531 48.2955 31.997 48.5057 32.0993 48.6875H32.2016V44.3636H33.9005V56H32.2414V54.642H32.0993C31.997 54.8277 31.8493 55.0398 31.6561 55.2784C31.4667 55.517 31.2054 55.7254 30.872 55.9034C30.5387 56.0814 30.1069 56.1705 29.5766 56.1705ZM29.9516 54.7216C30.4402 54.7216 30.8531 54.5928 31.1902 54.3352C31.5311 54.0739 31.7887 53.7121 31.963 53.25C32.141 52.7879 32.23 52.25 32.23 51.6364C32.23 51.0303 32.1429 50.5 31.9686 50.0455C31.7944 49.5909 31.5387 49.2367 31.2016 48.983C30.8645 48.7292 30.4478 48.6023 29.9516 48.6023C29.4402 48.6023 29.0141 48.7348 28.6732 49C28.3323 49.2652 28.0747 49.6269 27.9005 50.0852C27.73 50.5436 27.6448 51.0606 27.6448 51.6364C27.6448 52.2197 27.7319 52.7443 27.9061 53.2102C28.0804 53.6761 28.338 54.0455 28.6789 54.3182C29.0236 54.5871 29.4478 54.7216 29.9516 54.7216ZM40.2465 56.1761C39.3867 56.1761 38.6462 55.9924 38.0249 55.625C37.4075 55.2538 36.9302 54.733 36.5931 54.0625C36.2598 53.3883 36.0931 52.5985 36.0931 51.6932C36.0931 50.7992 36.2598 50.0114 36.5931 49.3295C36.9302 48.6477 37.3999 48.1155 38.0022 47.733C38.6083 47.3504 39.3166 47.1591 40.1272 47.1591C40.6196 47.1591 41.0969 47.2405 41.559 47.4034C42.0212 47.5663 42.4359 47.822 42.8034 48.1705C43.1708 48.5189 43.4605 48.9716 43.6727 49.5284C43.8848 50.0814 43.9909 50.7538 43.9909 51.5455V52.1477H37.0534V50.875H42.3261C42.3261 50.428 42.2352 50.0322 42.0534 49.6875C41.8715 49.339 41.6159 49.0644 41.2863 48.8636C40.9605 48.6629 40.578 48.5625 40.1386 48.5625C39.6613 48.5625 39.2446 48.6799 38.8886 48.9148C38.5363 49.1458 38.2636 49.4489 38.0704 49.8239C37.881 50.1951 37.7863 50.5985 37.7863 51.0341V52.0284C37.7863 52.6117 37.8886 53.108 38.0931 53.517C38.3015 53.9261 38.5912 54.2386 38.9624 54.4545C39.3337 54.6667 39.7674 54.7727 40.2636 54.7727C40.5855 54.7727 40.8791 54.7273 41.1443 54.6364C41.4094 54.5417 41.6386 54.4015 41.8318 54.2159C42.0249 54.0303 42.1727 53.8011 42.2749 53.5284L43.8829 53.8182C43.7541 54.2917 43.523 54.7064 43.1897 55.0625C42.8602 55.4148 42.4454 55.6894 41.9454 55.8864C41.4492 56.0795 40.8829 56.1761 40.2465 56.1761ZM59.9586 44.3636V56H58.3449L52.4302 47.4659H52.3222V56H50.5665V44.3636H52.1915L58.112 52.9091H58.2199V44.3636H59.9586ZM66.3047 56.1761C65.4448 56.1761 64.7043 55.9924 64.0831 55.625C63.4656 55.2538 62.9884 54.733 62.6512 54.0625C62.3179 53.3883 62.1512 52.5985 62.1512 51.6932C62.1512 50.7992 62.3179 50.0114 62.6512 49.3295C62.9884 48.6477 63.4581 48.1155 64.0603 47.733C64.6664 47.3504 65.3747 47.1591 66.1853 47.1591C66.6778 47.1591 67.155 47.2405 67.6172 47.4034C68.0793 47.5663 68.4941 47.822 68.8615 48.1705C69.2289 48.5189 69.5187 48.9716 69.7308 49.5284C69.9429 50.0814 70.049 50.7538 70.049 51.5455V52.1477H63.1115V50.875H68.3842C68.3842 50.428 68.2933 50.0322 68.1115 49.6875C67.9297 49.339 67.674 49.0644 67.3444 48.8636C67.0187 48.6629 66.6361 48.5625 66.1967 48.5625C65.7194 48.5625 65.3028 48.6799 64.9467 48.9148C64.5944 49.1458 64.3217 49.4489 64.1285 49.8239C63.9391 50.1951 63.8444 50.5985 63.8444 51.0341V52.0284C63.8444 52.6117 63.9467 53.108 64.1512 53.517C64.3596 53.9261 64.6494 54.2386 65.0206 54.4545C65.3918 54.6667 65.8255 54.7727 66.3217 54.7727C66.6437 54.7727 66.9372 54.7273 67.2024 54.6364C67.4675 54.5417 67.6967 54.4015 67.8899 54.2159C68.0831 54.0303 68.2308 53.8011 68.3331 53.5284L69.941 53.8182C69.8122 54.2917 69.5812 54.7064 69.2478 55.0625C68.9183 55.4148 68.5035 55.6894 68.0035 55.8864C67.5073 56.0795 66.941 56.1761 66.3047 56.1761ZM73.2317 47.2727L75.1578 50.6705L77.101 47.2727H78.959L76.2374 51.6364L78.9817 56H77.1237L75.1578 52.7386L73.1976 56H71.334L74.0499 51.6364L71.3681 47.2727H73.2317ZM84.9372 47.2727V48.6364H80.1701V47.2727H84.9372ZM81.4485 45.1818H83.1474V53.4375C83.1474 53.767 83.1966 54.0152 83.2951 54.1818C83.3936 54.3447 83.5205 54.4564 83.6758 54.517C83.8349 54.5739 84.0072 54.6023 84.1928 54.6023C84.3292 54.6023 84.4485 54.5928 84.5508 54.5739C84.6531 54.5549 84.7326 54.5398 84.7894 54.5284L85.0963 55.9318C84.9978 55.9697 84.8576 56.0076 84.6758 56.0455C84.494 56.0871 84.2667 56.1098 83.994 56.1136C83.547 56.1212 83.1303 56.0417 82.744 55.875C82.3576 55.7083 82.0451 55.4508 81.8065 55.1023C81.5678 54.7538 81.4485 54.3163 81.4485 53.7898V45.1818Z" fill="black"/>
</svg>
