<svg width="138" height="40" viewBox="0 0 138 40" fill="none" xmlns="http://www.w3.org/2000/svg">
<g filter="url(#filter0_d_101_131)">
<path d="M20 21.6471C16.8812 21.6471 14.3529 19.1188 14.3529 16C14.3529 12.8812 16.8812 10.3529 20 10.3529C23.1188 10.3529 25.6471 12.8812 25.6471 16C25.6471 19.1188 23.1188 21.6471 20 21.6471Z" fill="#91E489"/>
<path d="M9.10547 18.2821C7.48681 18.5623 6.37731 20.0973 6.99866 21.5912C7.86614 23.6768 9.25009 25.5349 11.0443 26.987C13.6098 29.0631 16.8457 30.1725 20.1701 30.1156C23.4945 30.0586 26.689 28.839 29.1793 26.6761C30.9207 25.1636 32.2377 23.2591 33.0306 21.1451C33.5985 19.6309 32.435 18.1348 30.8074 17.9102C29.1798 17.6857 27.7185 18.8487 26.9145 20.2562C26.4787 21.019 25.913 21.7111 25.2353 22.2998C23.8065 23.5408 21.9736 24.2405 20.0663 24.2732C18.1589 24.3058 16.3023 23.6694 14.8303 22.4781C14.132 21.913 13.5421 21.2407 13.0794 20.4932C12.2259 19.1142 10.7241 18.0019 9.10547 18.2821Z" fill="#82E579"/>
<path d="M34.0085 17.4048C34.0806 16.8399 34.1177 16.2644 34.1177 15.6805C34.1177 8.05998 27.797 1.88235 20 1.88235C12.203 1.88235 5.88235 8.05998 5.88235 15.6805C5.88235 16.4299 5.94348 17.1653 6.06114 17.8824C6.70959 17.0147 7.72166 16.3954 8.81483 16.207C9.9976 16.0031 11.0725 16.2835 11.9814 16.8076C11.9277 16.4394 11.9 16.0631 11.9 15.6805C11.9 11.3082 15.5265 7.76375 20 7.76375C24.4735 7.76375 28.1001 11.3082 28.1001 15.6805C28.1001 15.9687 28.0842 16.2534 28.0536 16.5337C28.9433 15.9788 30.0077 15.6617 31.1973 15.8252C32.2962 15.9761 33.3294 16.5602 34.0085 17.4048Z" fill="#00797C"/>
<path d="M48.7045 11.375V9.86364H57.7102V11.375H54.0795V21.5H52.3295V11.375H48.7045ZM58.8177 21.5V12.7727H60.4597V14.1591H60.5506C60.7097 13.6894 60.99 13.3201 61.3915 13.0511C61.7968 12.7784 62.2552 12.642 62.7665 12.642C62.8726 12.642 62.9976 12.6458 63.1415 12.6534C63.2893 12.661 63.4048 12.6705 63.4881 12.6818V14.3068C63.4199 14.2879 63.2987 14.267 63.1245 14.2443C62.9502 14.2178 62.776 14.2045 62.6018 14.2045C62.2002 14.2045 61.8423 14.2898 61.5279 14.4602C61.2173 14.6269 60.9711 14.8598 60.7893 15.1591C60.6074 15.4545 60.5165 15.7917 60.5165 16.1705V21.5H58.8177ZM67.5799 21.6932C67.0269 21.6932 66.5269 21.5909 66.0799 21.3864C65.633 21.178 65.2788 20.8769 65.0174 20.483C64.7599 20.089 64.6311 19.6061 64.6311 19.0341C64.6311 18.5417 64.7258 18.1364 64.9152 17.8182C65.1046 17.5 65.3602 17.2481 65.6822 17.0625C66.0042 16.8769 66.364 16.7367 66.7618 16.642C67.1595 16.5473 67.5648 16.4754 67.9777 16.4261C68.5004 16.3655 68.9246 16.3163 69.2504 16.2784C69.5762 16.2367 69.8129 16.1705 69.9606 16.0795C70.1084 15.9886 70.1822 15.8409 70.1822 15.6364V15.5966C70.1822 15.1004 70.0421 14.7159 69.7618 14.4432C69.4852 14.1705 69.0724 14.0341 68.5231 14.0341C67.9512 14.0341 67.5004 14.161 67.1709 14.4148C66.8451 14.6648 66.6197 14.9432 66.4947 15.25L64.8981 14.8864C65.0875 14.3561 65.364 13.928 65.7277 13.6023C66.0951 13.2727 66.5174 13.0341 66.9947 12.8864C67.472 12.7348 67.9739 12.6591 68.5004 12.6591C68.8489 12.6591 69.2182 12.7008 69.6084 12.7841C70.0023 12.8636 70.3697 13.0114 70.7106 13.2273C71.0553 13.4432 71.3375 13.7519 71.5572 14.1534C71.7769 14.5511 71.8868 15.0682 71.8868 15.7045V21.5H70.2277V20.3068H70.1595C70.0496 20.5265 69.8849 20.7424 69.6652 20.9545C69.4455 21.1667 69.1633 21.3428 68.8186 21.483C68.4739 21.6231 68.061 21.6932 67.5799 21.6932ZM67.9493 20.3295C68.419 20.3295 68.8205 20.2367 69.1538 20.0511C69.4909 19.8655 69.7466 19.6231 69.9209 19.3239C70.0989 19.0208 70.1879 18.697 70.1879 18.3523V17.2273C70.1273 17.2879 70.0099 17.3447 69.8356 17.3977C69.6652 17.447 69.4701 17.4905 69.2504 17.5284C69.0307 17.5625 68.8167 17.5947 68.6084 17.625C68.4 17.6515 68.2258 17.6742 68.0856 17.6932C67.7561 17.7348 67.4549 17.8049 67.1822 17.9034C66.9133 18.0019 66.6974 18.1439 66.5345 18.3295C66.3754 18.5114 66.2959 18.7538 66.2959 19.0568C66.2959 19.4773 66.4512 19.7955 66.7618 20.0114C67.0724 20.2235 67.4682 20.3295 67.9493 20.3295ZM77.5766 21.6705C76.872 21.6705 76.2433 21.4905 75.6902 21.1307C75.141 20.767 74.7092 20.25 74.3948 19.5795C74.0842 18.9053 73.9289 18.0966 73.9289 17.1534C73.9289 16.2102 74.0861 15.4034 74.4005 14.733C74.7186 14.0625 75.1542 13.5492 75.7073 13.1932C76.2603 12.8371 76.8872 12.6591 77.588 12.6591C78.1296 12.6591 78.5652 12.75 78.8948 12.9318C79.2281 13.1098 79.4857 13.3182 79.6675 13.5568C79.8531 13.7955 79.997 14.0057 80.0993 14.1875H80.2016V9.86364H81.9005V21.5H80.2414V20.142H80.0993C79.997 20.3277 79.8493 20.5398 79.6561 20.7784C79.4667 21.017 79.2054 21.2254 78.872 21.4034C78.5387 21.5814 78.1069 21.6705 77.5766 21.6705ZM77.9516 20.2216C78.4402 20.2216 78.8531 20.0928 79.1902 19.8352C79.5311 19.5739 79.7887 19.2121 79.963 18.75C80.141 18.2879 80.23 17.75 80.23 17.1364C80.23 16.5303 80.1429 16 79.9686 15.5455C79.7944 15.0909 79.5387 14.7367 79.2016 14.483C78.8645 14.2292 78.4478 14.1023 77.9516 14.1023C77.4402 14.1023 77.0141 14.2348 76.6732 14.5C76.3323 14.7652 76.0747 15.1269 75.9005 15.5852C75.73 16.0436 75.6448 16.5606 75.6448 17.1364C75.6448 17.7197 75.7319 18.2443 75.9061 18.7102C76.0804 19.1761 76.338 19.5455 76.6789 19.8182C77.0236 20.0871 77.4478 20.2216 77.9516 20.2216ZM88.2465 21.6761C87.3867 21.6761 86.6462 21.4924 86.0249 21.125C85.4075 20.7538 84.9302 20.233 84.5931 19.5625C84.2598 18.8883 84.0931 18.0985 84.0931 17.1932C84.0931 16.2992 84.2598 15.5114 84.5931 14.8295C84.9302 14.1477 85.3999 13.6155 86.0022 13.233C86.6083 12.8504 87.3166 12.6591 88.1272 12.6591C88.6196 12.6591 89.0969 12.7405 89.559 12.9034C90.0212 13.0663 90.4359 13.322 90.8034 13.6705C91.1708 14.0189 91.4605 14.4716 91.6727 15.0284C91.8848 15.5814 91.9909 16.2538 91.9909 17.0455V17.6477H85.0534V16.375H90.3261C90.3261 15.928 90.2352 15.5322 90.0534 15.1875C89.8715 14.839 89.6159 14.5644 89.2863 14.3636C88.9605 14.1629 88.578 14.0625 88.1386 14.0625C87.6613 14.0625 87.2446 14.1799 86.8886 14.4148C86.5363 14.6458 86.2636 14.9489 86.0704 15.3239C85.881 15.6951 85.7863 16.0985 85.7863 16.5341V17.5284C85.7863 18.1117 85.8886 18.608 86.0931 19.017C86.3015 19.4261 86.5912 19.7386 86.9624 19.9545C87.3337 20.1667 87.7674 20.2727 88.2636 20.2727C88.5855 20.2727 88.8791 20.2273 89.1443 20.1364C89.4094 20.0417 89.6386 19.9015 89.8318 19.7159C90.0249 19.5303 90.1727 19.3011 90.2749 19.0284L91.8829 19.3182C91.7541 19.7917 91.523 20.2064 91.1897 20.5625C90.8602 20.9148 90.4454 21.1894 89.9454 21.3864C89.4492 21.5795 88.8829 21.6761 88.2465 21.6761ZM107.959 9.86364V21.5H106.345L100.43 12.9659H100.322V21.5H98.5665V9.86364H100.192L106.112 18.4091H106.22V9.86364H107.959ZM114.305 21.6761C113.445 21.6761 112.704 21.4924 112.083 21.125C111.466 20.7538 110.988 20.233 110.651 19.5625C110.318 18.8883 110.151 18.0985 110.151 17.1932C110.151 16.2992 110.318 15.5114 110.651 14.8295C110.988 14.1477 111.458 13.6155 112.06 13.233C112.666 12.8504 113.375 12.6591 114.185 12.6591C114.678 12.6591 115.155 12.7405 115.617 12.9034C116.079 13.0663 116.494 13.322 116.861 13.6705C117.229 14.0189 117.519 14.4716 117.731 15.0284C117.943 15.5814 118.049 16.2538 118.049 17.0455V17.6477H111.111V16.375H116.384C116.384 15.928 116.293 15.5322 116.111 15.1875C115.93 14.839 115.674 14.5644 115.344 14.3636C115.019 14.1629 114.636 14.0625 114.197 14.0625C113.719 14.0625 113.303 14.1799 112.947 14.4148C112.594 14.6458 112.322 14.9489 112.129 15.3239C111.939 15.6951 111.844 16.0985 111.844 16.5341V17.5284C111.844 18.1117 111.947 18.608 112.151 19.017C112.36 19.4261 112.649 19.7386 113.021 19.9545C113.392 20.1667 113.825 20.2727 114.322 20.2727C114.644 20.2727 114.937 20.2273 115.202 20.1364C115.468 20.0417 115.697 19.9015 115.89 19.7159C116.083 19.5303 116.231 19.3011 116.333 19.0284L117.941 19.3182C117.812 19.7917 117.581 20.2064 117.248 20.5625C116.918 20.9148 116.504 21.1894 116.004 21.3864C115.507 21.5795 114.941 21.6761 114.305 21.6761ZM121.232 12.7727L123.158 16.1705L125.101 12.7727H126.959L124.237 17.1364L126.982 21.5H125.124L123.158 18.2386L121.198 21.5H119.334L122.05 17.1364L119.368 12.7727H121.232ZM132.937 12.7727V14.1364H128.17V12.7727H132.937ZM129.449 10.6818H131.147V18.9375C131.147 19.267 131.197 19.5152 131.295 19.6818C131.394 19.8447 131.52 19.9564 131.676 20.017C131.835 20.0739 132.007 20.1023 132.193 20.1023C132.329 20.1023 132.449 20.0928 132.551 20.0739C132.653 20.0549 132.733 20.0398 132.789 20.0284L133.096 21.4318C132.998 21.4697 132.858 21.5076 132.676 21.5455C132.494 21.5871 132.267 21.6098 131.994 21.6136C131.547 21.6212 131.13 21.5417 130.744 21.375C130.358 21.2083 130.045 20.9508 129.806 20.6023C129.568 20.2538 129.449 19.8163 129.449 19.2898V10.6818Z" fill="black"/>
</g>
<defs>
<filter id="filter0_d_101_131" x="0" y="0" width="138" height="40" filterUnits="userSpaceOnUse" color-interpolation-filters="sRGB">
<feFlood flood-opacity="0" result="BackgroundImageFix"/>
<feColorMatrix in="SourceAlpha" type="matrix" values="0 0 0 0 0 0 0 0 0 0 0 0 0 0 0 0 0 0 127 0" result="hardAlpha"/>
<feOffset dy="4"/>
<feGaussianBlur stdDeviation="2"/>
<feComposite in2="hardAlpha" operator="out"/>
<feColorMatrix type="matrix" values="0 0 0 0 0 0 0 0 0 0 0 0 0 0 0 0 0 0 0.25 0"/>
<feBlend mode="normal" in2="BackgroundImageFix" result="effect1_dropShadow_101_131"/>
<feBlend mode="normal" in="SourceGraphic" in2="effect1_dropShadow_101_131" result="shape"/>
</filter>
</defs>
</svg>
